<?xml version="1.0" encoding="UTF-8" standalone="no"?>
<!-- Created with Inkscape (http://www.inkscape.org/) -->

<svg viewBox="0 0 456.4946 66.891945" version="1.1" id="svg1022" inkscape:version="1.2.2 (b0a8486541, 2022-12-01)"
  sodipodi:docname="separator.svg" xmlns:inkscape="http://www.inkscape.org/namespaces/inkscape"
  xmlns:sodipodi="http://sodipodi.sourceforge.net/DTD/sodipodi-0.dtd" xmlns="http://www.w3.org/2000/svg"
  xmlns:svg="http://www.w3.org/2000/svg">
  <sodipodi:namedview id="namedview1024" pagecolor="#505050" bordercolor="#ffffff" borderopacity="1"
    inkscape:showpageshadow="0" inkscape:pageopacity="0" inkscape:pagecheckerboard="1" inkscape:deskcolor="#505050"
    inkscape:document-units="mm" showgrid="false" inkscape:zoom="3.3638608" inkscape:cx="299.80432"
    inkscape:cy="40.875651" inkscape:window-width="3440" inkscape:window-height="1335" inkscape:window-x="0"
    inkscape:window-y="34" inkscape:window-maximized="1" inkscape:current-layer="layer1" />
  <defs>
    <style type="text/css">
      .branch {
        fill: #0c0901;
      }
      .leaf {
        fill: #187D0E;
      }

      @media (prefers-color-scheme: dark) {
        .branch {
          fill: whitesmoke;
        }
      }
    </style>
  </defs>
  <g inkscape:label="Layer 1" inkscape:groupmode="layer" id="layer1" transform="translate(117.78165,-21.592124)">
    <path class="branch"
      d="m 278.33302,81.821177 c 3.14501,2.830503 6.63597,5.000563 10.63012,6.069866 2.83051,0.629001 7.64238,1.258002 9.74953,-0.943504 4.68606,-4.68606 -5.28362,-13.429184 -8.52297,-15.819388 -7.01337,-5.126365 -15.69359,-7.013367 -24.27947,-5.629567 -0.13209,0.08806 -0.21071,0.08806 -0.29877,0.220151 -4.56026,-4.24576 -9.74952,-7.076266 -16.69999,-5.723912 -0.31451,0 -0.31451,0.629 0.0881,0.629 14.18398,-0.629 20.2853,12.988884 29.34292,21.228807"/>
    <path class="leaf"
      d="m 289.08894,72.952254 c 2.51601,1.887009 12.04539,9.749528 7.07628,13.271932 -3.52242,2.201505 -10.44143,-1.258002 -13.27194,-2.830504 -4.11996,-2.830507 -7.67382,-6.919015 -11.22768,-11.196228 4.71751,3.585306 9.62372,6.919015 14.75009,10.095478 0.9435,0.629001 1.88701,-0.943504 0.9435,-1.572505 -6.29002,-4.214314 -12.42278,-8.680225 -18.42974,-13.303388 7.13916,-0.629001 14.30978,1.258002 20.15949,5.598114 z"/>
    <path class="branch"
      d="m 338.63226,49.411869 c 0.16354,-0.314504 0.0881,-0.943504 -0.3145,-1.258001 -1.57251,-0.943505 -3.14501,-1.258009 -4.90622,-0.943505 -1.258,0.314497 -0.629,1.887002 0.31451,1.887002 2.516,0.629001 2.516,1.572506 0.629,1.887009 -1.258,1.258002 -2.51601,1.258002 -3.80546,-0.629 0.9435,-0.314504 0.629,-1.887009 -0.62901,-1.572505 -9.62372,4.088507 -19.37325,6.069862 -29.68887,7.32787 -2.51601,0 -5.15782,0 -7.79962,0 5.53522,-1.258008 10.97608,-2.830513 16.16534,-5.063465 5.18927,-2.201506 14.21543,-5.503768 13.86948,-12.580035 -0.21071,-4.340112 -4.8433,-7.076266 -8.52297,-4.24576 -3.39661,2.51601 -2.2015,7.925419 1.88701,8.711671 0.3145,0.08806 0.94351,-0.314497 0.629,-0.629 -1.258,-0.629001 -1.887,-1.887002 -2.51601,-3.145011 5.62957,-2.201506 7.67382,-1.887002 6.22712,1.258009 -0.3145,2.516002 -2.51601,3.899809 -4.56026,5.189264 -3.33371,1.887002 -7.10772,3.679658 -10.78738,5.126358 -6.63597,2.51601 -13.42919,4.214314 -20.50545,5.377969 -9.74953,0 -19.49905,0 -29.24858,0 0.22015,-0.220151 0.3145,-0.305069 0.629,-0.629007 4.24576,-0.629001 7.67382,-2.830507 10.75593,-5.62956 6.91902,-2.830507 14.30979,-4.686063 21.41751,-7.139173 4.96911,-1.887002 10.00112,-3.89981 14.30978,-6.950468 2.83051,-1.887002 8.08267,-5.503761 7.07627,-9.52937 -2.20151,-9.403577 -19.81355,-1.572505 -24.18511,0.943498 -8.08267,5.189264 -12.64294,14.309792 -19.24745,20.662705 -4.37156,1.572505 -8.49152,3.805457 -12.17118,6.856115 0,0 -0.0881,0 -0.16669,0 -0.26732,0.08806 -0.3145,0.217009 -0.3145,0.314504 -0.0786,0.08806 -0.21071,0.217009 -0.3145,0.314504 -0.17926,0.08806 -0.17926,0.172971 -0.30192,0.314497 -16.47984,0 -33.07291,0 -49.493,0 -21.07155,0 -42.03932,0 -63.10773,0 -19.5934,0 -39.22139,0 -58.802215,0 -21.008655,0 -42.051906,0 -63.063704,0 -16.4483913,0 -33.072903,0 -49.540166,0 -0.0881,-0.220152 -0.0881,-0.305063 -0.29877,-0.314497 -0.0881,-0.128948 -0.22016,-0.257897 -0.31451,-0.314504 0,-0.217009 -0.0881,-0.314504 -0.31135,-0.314504 -0.13209,0 -0.21072,0 -0.21072,0 -3.67966,-3.145003 -7.79962,-5.189257 -12.01393,-6.856115 -6.76177,-6.384366 -11.32203,-15.473441 -19.4047,-20.662705 -4.34011,-2.830507 -22.01506,-10.472874 -24.15366,-0.943498 -0.94351,4.025609 4.27721,7.579469 7.01336,9.52937 4.34012,3.145011 9.30923,5.189265 14.30979,6.950468 7.13917,2.51601 14.52994,4.340112 21.44895,7.139173 3.14501,2.830506 6.51018,5.063458 10.69304,5.62956 0.26418,0.217009 0.31449,0.301927 0.629,0.629007 -9.74953,0 -19.49905,0 -29.24858,0 -7.07626,-1.258008 -13.86949,-2.830513 -20.50545,-5.377969 -3.67967,-1.572505 -7.48512,-3.145003 -10.81883,-5.126358 -1.88701,-1.258008 -4.02561,-2.830514 -4.56027,-5.189264 -1.258005,-3.145011 0.629,-3.459515 6.29002,-1.258009 -0.3145,1.258009 -1.258,2.201506 -2.2015,3.145011 -0.31451,0.314503 0,0.943504 0.3145,0.629 4.05706,-0.629 5.28361,-6.321467 1.887,-8.711671 -3.67965,-2.830506 -8.334275,-0.08492 -8.585875,4.24576 -0.31136,7.076267 8.711675,10.409975 13.869485,12.580035 5.18927,2.201506 10.63014,3.89981 16.16535,5.063465 -2.51601,0 -5.18926,0 -7.79962,0 -10.25273,-1.258008 -20.00226,-3.239363 -29.688885,-7.32787 -0.9435,-0.314504 -1.5725,1.258001 -0.629,1.572505 -1.25801,1.572498 -2.51601,1.887002 -3.80546,0.629 -1.887,-0.629 -1.887,-1.258008 0.629,-1.887009 0.9435,0.217009 1.5725,-1.258001 0.3145,-1.887002 -1.887,-0.314504 -3.23935,-0.217008 -4.90621,0.943505 -0.30192,0.314497 -0.629,0.943497 -0.30192,1.258001 1.5725,2.516003 5.53521,5.975517 8.80602,3.994163 0.94351,-0.629008 1.258,-1.258009 1.57251,-1.887009 7.673825,2.830506 15.913735,5.126365 24.122215,5.755365 0,0.132091 0,0.217009 0,0.217009 -1.258,0.217002 -2.20151,0.314497 -2.83051,0.314497 -6.13277,0.314504 -12.35988,0.943504 -18.492655,1.572505 -0.26732,0.132091 -0.629,0.217009 -0.629,0.314504 0,-0.217009 -0.0881,-0.629008 -0.3145,-0.629008 -2.51601,-2.516002 -6.47872,-1.572498 -7.86252,1.572505 -0.2233,0.314504 -0.2233,0.629001 0.0755,0.943505 1.887,1.887002 4.56026,4.434465 7.48512,3.396608 1.88701,-0.629001 2.8305,-2.516003 2.51601,-4.119961 4.560265,-0.314497 9.089075,-0.629001 13.649335,-1.258002 2.51601,-0.217008 4.90622,-0.629 7.39077,-0.629 0,0 0,0 0.0755,0 0.13524,0 0.26732,0 0.3145,0 2.20151,0 4.56027,0 6.85612,0 -6.06986,1.887002 -12.17118,4.93766 -16.38549,9.309225 -3.36516,3.55386 -5.40942,10.347076 -0.629,13.743684 3.145,2.201506 8.52297,0.943504 8.96327,-3.145011 0.3145,-3.239356 -3.77401,-6.730316 -6.51017,-4.119961 -0.29878,0.217009 -0.0881,0.943505 0.3145,0.943505 2.51601,-0.629001 2.83051,1.258001 0.629,5.409415 -1.258,-0.629 -2.516,-1.258001 -3.67965,-2.201505 -1.57251,-1.88701 -0.629,-5.063466 0.16353,-6.667418 1.57251,-3.176456 4.46591,-5.126365 7.29643,-6.950467 4.68606,-2.830507 9.52937,-4.906214 14.59283,-6.510172 17.17175,0 34.1485,0 51.269923,0 12.2655307,0 24.3423637,0 36.623621,0 61.676754,0 123.296901,0 184.973661,0 12.20263,0 24.34236,0 36.62362,0 17.10884,0 34.10761,0 51.22589,0 5.12636,1.572505 10.09548,3.679665 14.59283,6.510172 2.83051,1.887002 5.75537,3.774011 7.26498,6.950467 0.9435,1.572506 1.5725,4.93766 0.22015,6.667418 -1.258,0.629 -2.51601,1.572505 -3.67966,2.201505 -1.88701,-4.119961 -1.57251,-5.944063 0.629,-5.409415 0.3145,0 0.629,-0.629001 0.3145,-0.943505 -2.83051,-2.516003 -6.85612,0.943505 -6.51017,4.119961 0.31451,4.119961 5.97552,5.189265 8.96328,3.145011 4.81186,-3.365162 2.8305,-10.189824 -0.629,-13.743684 -4.24577,-4.371565 -10.31563,-7.359324 -16.3855,-9.309225 2.20151,0 4.56026,0 6.79322,0 0.13523,0 0.26732,0 0.3145,0 0.0786,0 0.0786,0 0.0786,0 2.51601,0.172971 5.03202,0.629 7.48513,0.629 4.46591,0.314504 9.02617,0.943505 13.55498,1.258002 -0.3145,1.887009 0.629,3.333708 2.516,4.119961 2.83051,0.943504 5.59812,-1.572505 7.45367,-3.396608 0.31451,-0.30192 0.31451,-0.629001 0.0786,-0.943505 -1.258,-3.239356 -5.28361,-4.025608 -7.89397,-1.572505 -0.21071,0.172979 -0.3145,0.314504 -0.21071,0.629008 -0.2233,-0.132091 -0.31451,-0.217009 -0.62901,-0.314504 -6.16422,-0.314504 -12.35988,-0.943504 -18.55554,-1.572505 -0.62901,0 -1.57251,-0.217002 -2.83051,-0.314497 0,0 0,-0.08492 0,-0.217009 8.27137,-0.629 16.51129,-2.830506 24.18511,-5.755365 0.13209,0.629 0.629,1.572505 1.57251,1.887009 3.23935,1.887002 7.23351,-1.572506 8.80602,-3.994163"/>
    <path class="leaf"
      d="m 290.91305,26.642011 c 3.145,-1.258009 6.63597,-2.51601 9.96967,-2.51601 1.57251,-0.08491 3.14501,-0.08491 4.34012,0.629001 2.8305,1.572505 1.5725,5.000566 -0.3145,6.793223 -8.96328,8.585872 -21.32316,10.818824 -32.94082,14.529936 3.17646,-1.887009 6.35292,-4.214314 9.59228,-6.164215 4.84331,-2.830507 10.18982,-4.843315 14.81298,-7.893973 0.629,-0.629 0.21072,-1.572505 -0.31449,-1.258001 -5.28362,1.572505 -10.53579,4.906214 -15.15895,7.79962 -3.23935,1.887002 -6.41581,4.119961 -9.40357,6.510165 1.887,-2.516003 3.67966,-4.780415 5.40942,-6.950468 3.89981,-4.843314 8.46006,-8.868923 14.24688,-11.479278 z"/>
    <path class="leaf"
      d="m -83.408965,31.485325 c -1.887,-1.887009 -3.14501,-5.157818 -0.3145,-6.793223 1.258,-0.629 2.83051,-0.629 4.34011,-0.629 3.3337,0.08806 6.91902,1.258001 9.96968,2.516009 5.84971,2.516003 10.40997,6.635964 14.30978,11.479279 1.88701,2.201506 3.45951,4.560263 5.40941,6.950467 -3.145,-2.516009 -6.19566,-4.560263 -9.40356,-6.510165 -4.68607,-2.830506 -9.87533,-6.290021 -15.22185,-7.799619 -0.629,-0.213867 -0.9435,0.629 -0.3145,1.258001 4.68606,3.14501 10.09548,5.063466 14.87589,7.893972 3.23936,1.887002 6.35291,4.119961 9.52938,6.164215 -11.57363,-3.679658 -23.96497,-5.944064 -32.94082,-14.529936 z"/>
    <path style="fill: #700404"
      d="m -110.58184,61.425803 c 0.9435,-2.201506 2.516,-2.51601 4.62316,-1.258009 0.3145,0.314504 0.629,0.128948 0.9435,-0.08806 -0.13524,0.08806 0,0.314504 0.13209,0.314504 -2.20151,2.830506 -4.11996,3.176456 -5.84971,0.629 z"/>
    <path style="fill: #8a500b"
      d="m 327.31023,60.167794 c 2.20151,-1.258001 3.67966,-0.943497 4.68606,1.258009 -1.5725,2.516002 -3.67966,2.201505 -5.72391,-0.629008 0,-0.08805 0.0786,-0.314497 0,-0.314497 0.29877,0.217002 0.629,0.314497 0.9435,0.08806 z"/>
    <path class="branch"
      d="m 335.10985,72.779282 c 0.3145,-2.201506 -1.57251,-4.119961 -3.55386,-3.14501 -0.629,0.314504 -0.29878,1.258001 0.22329,1.258001 -0.22329,0.629001 -0.629,1.258001 -0.94349,1.887009 0,-0.314504 -0.2233,-0.629008 -0.31451,-0.943504 -7.45367,-5.252164 -16.22824,-10.881731 -25.34877,-12.831633 -0.31449,-0.08492 -0.629,0.314497 -0.21071,0.629001 8.01978,4.340113 16.25969,7.79962 23.83917,12.988884 -0.31451,0.314497 -0.31451,0.629001 -0.629,1.887002 -0.0912,0.314504 0.0755,0.943505 0.629,0.943505 2.2015,0.314504 6.06986,0.314504 6.47871,-2.51601"/>
    <path class="branch"
      d="m -67.589535,87.891043 c 4.02561,-0.943504 7.57947,-3.333708 10.63012,-6.069866 9.08908,-8.239923 15.15895,-21.763455 29.34293,-21.228807 0.3145,0.132091 0.629,-0.629 0.13209,-0.629 -6.91902,-1.258002 -12.13973,1.572505 -16.69999,5.723919 -0.13209,-0.132091 -0.22015,-0.132091 -0.29878,-0.220151 -8.58587,-1.258009 -17.26609,0.629 -24.31091,5.62956 -3.23935,2.516009 -13.17758,11.133328 -8.52297,15.819388 2.2015,2.201506 7.01337,1.572505 9.74953,0.943504"/>
    <path class="leaf"
      d="m -67.677635,72.952254 c 5.78682,-4.214307 12.98888,-6.164216 20.0966,-5.598114 -5.94406,4.654609 -12.01393,9.089074 -18.42974,13.303388 -0.94351,0.629 0,1.887002 0.94349,1.572498 5.12637,-3.176457 9.96968,-6.510165 14.71864,-10.095471 -3.55386,4.24576 -7.13916,8.460066 -11.25912,11.196227 -2.83051,1.887 -9.74953,5.189262 -13.20904,2.830504 -4.96911,-3.522404 4.68606,-11.479275 7.07627,-13.271932 z"/>
    <path class="branch"
      d="m -110.07236,69.700314 c -1.887,-0.943498 -4.0256,0.629007 -3.67965,3.14501 0.3145,3.14501 4.21431,3.14501 6.51017,2.51601 0.31449,0 0.629,-0.629001 0.629,-0.943505 -0.16669,-1.258001 -0.16669,-1.258001 -0.629,-1.887002 7.516575,-5.189264 15.756485,-8.680225 23.776265,-12.988884 0.3145,-0.217009 0.13209,-0.629008 -0.21072,-0.629008 -9.12052,1.887009 -17.863655,7.579476 -25.348765,12.83164 -0.16669,0.172971 -0.31451,0.629 -0.31451,0.943497 -0.29877,-0.629001 -0.629,-1.258001 -0.9435,-1.887002 0.62901,0 0.9435,-0.943505 0.3145,-1.258001"/>
  </g>
</svg>