<?xml version="1.0" encoding="UTF-8" standalone="no"?>
<!-- Created with Inkscape (http://www.inkscape.org/) -->

<svg
   viewBox="0 0 213.59601 180.40372"
   version="1.1"
   id="svg928"
   inkscape:version="1.2.2 (b0a8486541, 2022-12-01)"
   sodipodi:docname="favicon.svg"
   xmlns:inkscape="http://www.inkscape.org/namespaces/inkscape"
   xmlns:sodipodi="http://sodipodi.sourceforge.net/DTD/sodipodi-0.dtd"
   xmlns="http://www.w3.org/2000/svg"
   xmlns:svg="http://www.w3.org/2000/svg">
  <sodipodi:namedview
     id="namedview930"
     pagecolor="#505050"
     bordercolor="#ffffff"
     borderopacity="1"
     inkscape:showpageshadow="0"
     inkscape:pageopacity="0"
     inkscape:pagecheckerboard="1"
     inkscape:deskcolor="#505050"
     inkscape:document-units="mm"
     showgrid="false"
     inkscape:zoom="3.3638608"
     inkscape:cx="155.32747"
     inkscape:cy="76.548946"
     inkscape:window-width="3440"
     inkscape:window-height="1335"
     inkscape:window-x="0"
     inkscape:window-y="34"
     inkscape:window-maximized="1"
     inkscape:current-layer="layer1" />
  <defs
     id="defs925" />
  <g
     inkscape:label="Layer 1"
     inkscape:groupmode="layer"
     id="layer1"
     transform="translate(0.79601477,-0.8249593)">
    <path
       d="m 209.75869,113.25107 c -1.54322,-7.7435 -4.97398,-9.1116 -12.26736,-11.73837 9.24841,-3.36098 14.85583,-19.673374 3.35323,-24.639605 0.83638,-5.951267 0.56003,-9.886861 -3.43713,-13.854363 -2.16207,-2.147936 -6.97552,-3.921908 -9.7806,-5.144091 -2.35496,-1.026081 -7.60212,-0.291866 -9.21557,-1.719252 -4.0236,-3.557082 -3.23967,-12.392775 -9.00852,-16.769339 -3.6378,-2.760391 -6.69234,-4.492868 -11.37902,-4.492868 -3.25883,-12.324365 -6.18613,-20.132155 -20.05143,-22.742955 -5.79712,-1.090392 -12.67186,0.573234 -18.58665,-1.25547 -4.7706,-1.4739103 -7.68192,-6.8720031 -12.80639,-7.4110375 -6.25498,-0.6580597 -9.14535,5.6434386 -14.496012,7.6600375 -5.595554,2.108251 -12.2181,-0.09075 -18.048979,1.00647 -13.867594,2.60943 -16.794888,10.41722 -20.054174,22.742955 -4.68668,0 -7.74075,1.732477 -11.379916,4.492868 -5.767484,4.376564 -4.983559,13.212257 -9.007161,16.769339 -1.613455,1.427386 -6.860601,0.693171 -9.215114,1.719252 -2.805532,1.222183 -7.619902,2.996155 -9.781055,5.144091 -3.997153,3.967502 -4.273511,7.903096 -3.437142,13.854363 -11.50350007,4.966231 -5.8951728,21.278625 3.35232,24.639605 -7.2929242,2.62677 -10.7232243,3.99487 -12.2669054,11.73837 -1.32751967,6.65813 0.2102317,11.94357 6.877475,13.98206 -5.0861675,7.92133 0.9585864,13.69019 8.8083294,14.83484 4.584984,0.67036 10.154548,0.25538 14.755948,0.0456 3.05772,-0.13682 6.016937,-1.5186 9.164038,-0.88015 2.386434,0.48339 2.043497,2.57204 4.159503,3.14209 8.914586,2.40786 14.07235,-3.09649 23.105505,-2.34403 12.520924,1.03976 24.141168,4.15904 36.886,4.15904 12.74437,0 24.36461,-3.11928 36.88554,-4.15904 9.0336,-0.75246 14.19137,4.75189 23.10596,2.34403 2.116,-0.57005 1.77351,-2.6587 4.15903,-3.14209 3.14758,-0.63845 6.10724,0.74333 9.16497,0.88015 4.60093,0.20978 10.17005,0.62476 14.75549,-0.0456 7.85065,-1.14465 13.89358,-6.91351 8.80833,-14.83484 6.66724,-2.03849 8.20544,-7.32393 6.87746,-13.98206"
       style="fill:#6fc73c;fill-opacity:1;fill-rule:nonzero;stroke:none;stroke-width:0.0456036"
       id="path192" />
    <path
       d="m 158.55911,127.05983 c -3.72581,-1.40915 -11.03151,-5.02552 -14.59313,-6.69005 -5.84273,-2.72709 -12.6623,1.21306 -18.54562,3.64828 -11.57007,4.79294 -5.62155,1.49125 -18.43023,0.7251 -6.33251,-0.3785 -10.481524,-1.54139 -16.383542,-3.75773 -9.594533,-3.60724 -7.275581,-3.05543 -17.478472,0.29643 -16.154612,5.31281 -48.867424,9.02494 -67.4932919,2.7362 0.9599548,0.68406 2.1105344,2.79551 3.4877625,3.21507 -5.0861675,7.92133 0.9585864,13.69019 8.8083294,14.83484 4.584984,0.67036 10.154548,0.25538 14.755948,0.0456 3.05772,-0.13682 6.016937,-1.5186 9.164038,-0.88015 2.386434,0.48339 2.043497,2.57204 4.159503,3.14209 8.914586,2.40786 14.07235,-3.09649 23.105505,-2.34403 12.520924,1.03976 24.141168,4.15904 36.886,4.15904 12.74437,0 24.36461,-3.11928 36.88554,-4.15904 9.0336,-0.75246 14.19137,4.75189 23.10596,2.34403 2.116,-0.57005 1.77351,-2.6587 4.15903,-3.14209 3.14758,-0.63845 6.10724,0.74333 9.16497,0.88015 4.60093,0.20978 10.17005,0.62476 14.75549,-0.0456 7.85065,-1.14465 13.89358,-6.91351 8.80833,-14.83484 1.54824,-0.47429 3.29804,-2.41245 4.32138,-3.21507 -16.20796,2.25738 -32.07071,9.31227 -48.6435,3.04177"
       style="fill:#548747;fill-opacity:1;fill-rule:nonzero;stroke:none;stroke-width:0.0456036"
       id="path194" />
    <path
       d="m 196.59979,99.059241 c 4.30543,-1.56421 7.93092,-6.972799 8.0814,-12.057596 0.0748,-2.535551 -0.70959,-5.93303 -4.87227,-7.73436 l -1.82734,-0.788947 0.27726,-1.970078 c 0.94035,-6.690049 -0.11815,-9.079664 -2.69106,-11.638033 -3.26795,-3.246964 -7.93867,-4.770126 -12.43428,-5.061992 -2.51593,-0.164173 -4.8928,-0.319219 -6.45152,-1.696448 -2.34767,-2.074965 -3.33956,-5.221615 -4.29861,-8.263376 -1.04888,-3.327693 -2.03938,-6.470686 -4.55852,-8.381476 -3.46269,-2.628136 -5.92938,-3.962034 -9.80113,-3.962034 h -2.0102 l -0.51395,-1.943626 c -3.37694,-12.771278 -6.1013,-18.602607 -18.01022,-20.844936 -1.70329,-0.320138 -3.55252,-0.36118 -4.97353,-0.36118 -0.86145,0 -1.73111,0.01693 -2.60533,0.03426 -0.91481,0.01784 -1.83326,0.03555 -2.7499,0.03555 -2.56976,0 -5.596,-0.123194 -8.5461,-1.035194 -2.63544,-0.814478 -4.72225,-2.53192 -6.56281,-4.0464079 -1.98787,-1.6353495 -3.70438,-3.0476927 -5.74606,-3.2624847 -2.65366,-0.2813742 -4.65749,1.3849803 -7.006532,3.3691924 -1.765766,1.4926022 -3.767763,3.1840352 -6.295109,4.1367032 -2.036664,0.767502 -4.335531,1.125037 -7.23501,1.125037 -1.343939,4.52e-4 -2.69106,-0.07252 -3.993966,-0.14274 -1.290119,-0.0689 -2.5091,-0.134532 -3.711677,-0.134532 -1.398201,0 -2.525069,0.08946 -3.54613,0.28137 -11.91074,2.241424 -14.635553,8.073206 -18.012954,20.845401 L 55.99029,37.50494 h -2.010205 c -3.871287,0 -6.337986,1.33435 -9.801577,3.962034 -2.518685,1.910338 -3.509194,5.053331 -4.558076,8.381476 -0.959043,3.041761 -1.950465,6.188411 -4.297681,8.263376 -1.797693,1.591558 -4.361526,1.441075 -6.58698,1.783098 -3.976175,0.611084 -9.331859,2.029357 -12.298371,4.975342 -3.230102,3.205933 -3.441247,6.306982 -2.692435,11.63803 l 0.277725,1.970078 -1.827791,0.788947 c -4.1626947,1.801339 -4.9475311,5.198809 -4.8722863,7.734361 0.1792226,6.047033 3.9925923,9.572199 8.7175783,11.989186 1.942257,0.989595 1.555995,4.186412 -0.643009,4.979912 -6.9627538,2.50819 -9.308146,3.35186 -10.5914301,9.79108 -1.5696755,7.87119 1.8902681,10.00087 5.0797818,10.97678 l 3.2971383,1.00328 -1.862907,2.90495 c -1.4903244,2.31666 -1.8414708,4.3825 -1.044321,6.13368 1.064387,2.3349 4.142173,4.13625 8.032157,4.7063 1.560098,0.22801 3.388802,0.33746 5.590544,0.33746 2.272881,0 4.580422,-0.11855 6.811806,-0.22803 0.633432,-0.0319 1.253641,-0.0638 1.858344,-0.0911 0.960868,-0.041 1.981476,-0.25083 3.061367,-0.46972 1.417816,-0.28274 2.883514,-0.57917 4.484201,-0.57917 0.789397,0 1.526808,0.0684 2.255097,0.2189 2.242782,0.45148 3.241956,1.8287 3.839364,2.64957 0.362093,0.49707 0.389454,0.50621 0.482486,0.52899 1.304717,0.35116 2.5652,0.52445 3.854413,0.52445 2.507284,0 4.8431,-0.66126 7.316182,-1.36355 2.891266,-0.8163 5.880584,-1.66453 9.543461,-1.66453 0.639822,0 1.287839,0.0274 1.927209,0.0821 5.12811,0.42412 10.1395,1.19937 14.986242,1.94728 7.336247,1.13096 14.265719,2.19808 21.683593,2.19808 7.41786,0 14.34688,-1.06712 21.68313,-2.19808 4.84674,-0.74791 9.85811,-1.52316 14.98624,-1.94728 0.63936,-0.0547 1.28784,-0.0821 1.92766,-0.0821 3.66335,0 6.65265,0.84823 9.54346,1.66453 2.47309,0.70229 4.8089,1.36355 7.31572,1.36355 1.28876,0 2.55016,-0.17329 3.85442,-0.52445 0.0931,-0.0228 0.12087,-0.0319 0.48294,-0.52899 0.59741,-0.82087 1.59659,-2.19809 3.84074,-2.64957 0.72646,-0.15049 1.46433,-0.2189 2.25326,-0.2189 1.60161,0 3.06731,0.29643 4.48512,0.57917 1.0799,0.21889 2.09959,0.42867 3.06092,0.46972 0.60469,0.0274 1.22491,0.0593 1.85788,0.0911 2.23184,0.1095 4.53939,0.22803 6.81227,0.22803 2.20128,0 4.02999,-0.1095 5.59053,-0.33746 3.89,-0.57005 6.96777,-2.3714 8.03217,-4.7063 0.79714,-1.75118 0.44554,-3.81702 -1.04432,-6.13824 l -1.86246,-2.90039 3.29715,-1.00328 c 3.18905,-0.97591 6.649,-3.10559 5.07933,-10.97678 -1.28284,-6.43922 -3.62458,-7.29656 -10.59235,-9.79108 -5.43048,-1.94728 -0.006,-4.911503 -0.006,-4.911503 z m -90.59788,49.739809 c -7.818282,0 -15.271724,-1.1492 -22.47983,-2.26194 -4.757821,-0.73422 -9.677543,-1.49123 -14.622788,-1.90166 -0.496164,-0.041 -0.999179,-0.0638 -1.494426,-0.0638 -2.937788,0 -5.455101,0.7114 -8.119719,1.46842 -2.707482,0.76615 -5.507086,1.55965 -8.739924,1.55965 -1.755281,0 -3.460855,-0.23258 -5.215681,-0.70229 -1.9003,-0.51532 -2.805075,-1.76031 -3.345477,-2.50363 -0.4004,-0.5518 -0.40952,-0.5518 -0.649851,-0.60198 -0.384439,-0.0775 -0.783014,-0.11401 -1.220351,-0.11401 -1.078069,0 -2.230016,0.23257 -3.448999,0.47883 -1.226736,0.24626 -2.495884,0.50164 -3.858975,0.56549 -0.596494,0.0274 -1.209406,0.0593 -1.834631,0.0911 -2.295684,0.11401 -4.669805,0.23257 -7.073113,0.23257 -2.456665,0 -4.53254,-0.12771 -6.344826,-0.39218 -5.713216,-0.83454 -10.2101844,-3.7167 -12.029768,-7.71156 -0.8755876,-1.91993 -1.4602252,-4.80663 -0.017791,-8.40019 -3.8028816,-2.0704 -7.6810091,-6.47115 -5.82129707,-15.80163 1.39911797,-7.0184 4.46550317,-9.73637 8.99530627,-11.7703 C 4.864118,97.599848 2.2578744,92.391908 2.1028209,87.156636 1.9518742,82.058147 4.2037776,77.867179 8.3454939,75.381782 7.7567521,69.704144 8.481393,65.412843 12.756728,61.167152 c 2.168451,-2.157051 6.006902,-3.762299 9.091528,-5.057442 0.534474,-0.223456 1.036569,-0.433235 1.485764,-0.629324 1.474821,-0.643015 3.36828,-0.766145 5.199264,-0.884711 1.07214,-0.06838 2.851136,-0.182413 3.383329,-0.442349 1.229017,-1.135534 1.955025,-3.438516 2.723446,-5.873743 1.190253,-3.777798 2.539206,-8.057694 6.382676,-10.973132 3.542029,-2.68742 6.712846,-4.489223 10.928896,-4.922458 3.300785,-12.005134 7.076763,-20.066937 21.600126,-22.7999506 1.347593,-0.2531108 2.780915,-0.3712248 4.51156,-0.3712248 1.343032,0 2.6897,0.072 3.991689,0.1422876 1.290583,0.069289 2.510017,0.1345317 3.713954,0.1340792 2.281537,0 3.94517,-0.2430662 5.393536,-0.7889443 C 92.848,8.064982 94.344254,6.8008514 95.92807,5.4619295 c 2.572495,-2.1734658 5.48702,-4.6369702 9.7505,-4.6369702 0.38625,0 0.78119,0.020984 1.17383,0.062025 3.60132,0.3794214 6.21304,2.5278059 8.51693,4.4235456 1.61208,1.3270646 3.13432,2.5793378 4.78746,3.0905542 2.28611,0.7068585 4.82349,0.8017038 7.00379,0.8017038 0.88289,0 1.76715,-0.017837 2.64867,-0.03464 0.9075,-0.017837 1.81182,-0.035166 2.70656,-0.035166 1.64768,0 3.81201,0.051062 5.93942,0.4519276 14.52153,2.7339305 18.29661,10.7952825 21.59648,22.7990445 4.21695,0.433236 7.38778,2.23504 10.92935,4.922459 3.84348,2.915438 5.19242,7.195786 6.38267,10.973132 0.76751,2.430663 1.49261,4.733646 2.71981,5.869179 1.16927,1.080801 5.4934,0.807175 7.04529,1.13097 4.37703,0.925754 8.88951,2.681486 12.11824,5.88742 4.27535,4.245691 4.99997,8.536984 4.41122,14.214631 4.14172,2.485387 6.39364,6.676365 6.24269,11.774845 -0.15506,5.235281 -2.76221,10.443221 -6.57741,13.81331 4.53027,2.03392 7.59666,4.75191 8.99577,11.77029 1.86017,9.33049 -2.01841,13.73124 -5.82085,15.80165 1.442,3.59812 0.85736,6.48026 -0.0182,8.40018 -1.81958,3.99486 -6.31701,6.87701 -12.03023,7.71155 -1.81227,0.26451 -3.88814,0.3922 -6.34435,0.3922 -2.40331,0 -4.77743,-0.11854 -7.07311,-0.23258 -0.62523,-0.0319 -1.2386,-0.0638 -1.83464,-0.0911 -1.36354,-0.0638 -2.63179,-0.31924 -3.85851,-0.5655 -1.21944,-0.24625 -2.37093,-0.47882 -3.44992,-0.47882 -0.43733,0 -0.83591,0.0365 -1.21898,0.11402 -0.24124,0.0501 -0.25037,0.0501 -0.65077,0.60197 -0.54085,0.74333 -1.44563,1.98831 -3.34639,2.50363 -1.7539,0.46972 -3.4604,0.70229 -5.21522,0.70229 -3.23239,0 -6.03152,-0.7935 -8.73902,-1.55964 -2.66462,-0.75702 -5.18238,-1.46843 -8.12017,-1.46843 -0.4957,0 -0.99871,0.0228 -1.49487,0.0638 -4.94526,0.41043 -9.86544,1.16745 -14.62279,1.90166 -7.20765,1.11273 -14.6611,2.26194 -22.47938,2.26194"
       style="fill:#393e3b;fill-opacity:1;fill-rule:nonzero;stroke:none;stroke-width:0.0456036"
       id="path196" />
    <path
       d="m 147.98684,117.36451 c 6.35622,-2.22546 11.84005,-4.00855 15.58319,-3.42482 4.34966,0.67948 1.18479,-1.32708 -0.34978,-1.40916 -3.21004,-0.16874 -5.93074,-0.0958 -8.84709,0.0638 1.89939,-2.5766 2.75354,-5.84638 3.13753,-8.26336 0.31284,-1.97008 -0.20066,-1.41371 -0.6079,-0.52446 -2.8484,6.22034 -7.34264,9.14809 -10.91477,10.28818 -12.33075,3.94015 -22.42052,6.94998 -28.51636,11.0999 -1.43788,0.98048 -3.68569,0.39219 -3.85989,-2.39418 -0.20293,-3.24698 0.27819,-4.58316 0.52216,-6.09264 1.17156,-7.23729 12.09727,-10.52986 22.54139,-14.70716 6.96458,-2.786373 7.65957,-8.359121 7.34857,-11.765712 -0.15414,-1.696459 -1.01194,-0.757028 -1.31384,0.145923 -2.64775,7.893985 -8.81974,8.313536 -8.81974,8.313536 0.51896,-3.014399 -1.00692,-5.777975 -2.32213,-7.515467 -0.88881,-1.176569 -1.38589,-0.97136 -1.15422,0.355703 0.4884,2.795506 0.68861,7.410586 -2.79004,9.075117 -4.00308,1.91079 -11.3147,5.5682 -13.9255,2.69518 -1.56192,-1.71927 -2.5237,-3.830717 -2.00154,-8.527882 0.36164,-3.251528 4.20237,-7.054874 6.70235,-8.87445 1.56558,-1.135527 3.62093,-1.545965 4.43952,-1.646294 8.04218,-0.994156 11.15827,-3.53884 12.34488,-5.148635 0.60425,-0.816314 -0.13271,-1.016972 -0.58691,-0.839102 -4.61326,1.80133 -11.22943,2.845651 -9.6707,-1.942729 1.66089,-5.103032 0.81539,-11.578746 0.10807,-15.185985 -0.33017,-1.682772 -0.72692,-1.723815 -0.93533,-0.123065 -0.53311,4.081518 -1.79588,11.925337 -4.04641,16.180154 -1.9614,3.702998 -6.61479,6.959106 -9.84809,10.160479 -2.22227,2.198094 -4.06374,0.971342 -4.66342,-0.456041 -1.89802,-4.514752 -2.24963,-11.715558 -2.37275,-15.099344 -0.0392,-1.080811 0.95814,-2.626763 1.44563,-3.005278 4.64609,-3.611803 5.71093,-8.9839 6.35896,-12.486263 0.29095,-1.568756 -0.0725,-1.878861 -0.78985,-0.779821 -2.25737,3.456756 -7.17116,10.502512 -9.10338,9.480995 -2.959226,-1.568769 -5.570478,-22.976456 -6.092643,-19.843495 0,0 -1.74023,13.57756 1.914889,25.936131 1.341209,4.532997 -3.090089,3.894543 -6.26638,1.915343 -1.588386,-0.989587 -2.93733,-2.298423 -3.889529,-3.356419 -0.951754,-1.05801 -1.417371,-0.939431 -0.886537,0.442349 1.045228,2.727096 3.801505,7.228164 10.960816,9.950699 0.577797,0.218902 1.822314,0.620209 2.316205,2.079529 1.530919,4.528436 5.679479,18.273354 2.639079,21.169184 -1.872929,1.7831 -4.61234,0.17785 -6.614799,-1.04432 -3.219609,-2.17529 -6.17882,-3.91736 -8.605855,-5.477 -0.944445,-0.606485 -1.743875,-1.130917 -1.975083,-2.020193 -0.874667,-3.36098 -3.910049,-12.089506 -12.940923,-18.588011 -0.761126,-0.547256 -1.771696,-0.775272 -0.817221,0.556352 2.576603,3.589014 7.430192,10.922059 8.094643,16.061581 0.07436,0.574606 -0.495713,1.536843 -1.421932,1.427392 -3.155761,-0.373939 -10.65527,-0.871022 -15.428595,2.015681 -0.768876,0.465145 -1.173835,1.523159 0.303264,1.368095 4.430388,-0.465145 14.123421,-0.957667 20.78155,2.567493 10.554023,5.58644 14.006672,12.73708 14.985794,17.99973 0.274526,1.47756 1.376311,7.41514 -3.835266,4.61053 -6.613886,-3.56165 -18.519157,-8.22688 -32.299187,-8.84253 -0.985493,-0.0456 -3.916434,-0.62478 -4.908313,-1.71927 -2.209949,-2.43523 -5.680836,-6.09719 -7.347191,-11.12272 -0.209777,-0.63388 -0.704574,-1.135514 -0.778452,0.20066 -0.14274,2.60853 0.06522,7.12785 2.540574,11.12273 0.372125,0.59739 0.658516,1.67364 -0.471996,1.96095 -3.032639,0.75702 -6.292837,0.77981 -9.487368,1.62805 -1.594757,0.42867 -2.871201,1.71468 0.352971,1.45018 5.885598,-0.48795 16.421391,-0.60197 28.980614,2.63133 1.039306,0.2645 1.176578,1.12185 0.07572,1.35899 -3.348212,0.72509 -7.311616,2.20265 -11.329752,5.10761 -0.861907,0.62476 -1.377684,1.89254 0.477471,1.28601 7.727073,-2.52188 13.122883,-3.5662 21.217063,-3.44306 1.654039,0.0228 3.363728,0.65212 4.557626,1.20848 3.026695,1.41371 8.886764,4.2457 12.484419,6.57148 -0.08896,7.69789 -0.196087,13.47129 -0.196087,17.67138 0,34.98706 -15.665734,31.26126 -15.665734,31.26126 h 46.997205 c 0,0 -15.66574,3.20137 -15.66574,-31.26126 0,-3.15577 0.0274,-7.18712 0.057,-14.93061 4.5485,-5.07566 11.59926,-9.72724 19.38881,-11.59698 9.21786,-2.2209 17.31615,0.81629 22.09448,3.40658 2.86663,1.55052 2.12102,0.041 0.87969,-1.12641 -3.18814,-3.00071 -6.46659,-4.8203 -9.40755,-5.91022 -1.17703,-0.4378 -1.97601,-1.24041 1.13962,-2.33033"
       style="fill:#594208;fill-opacity:1;fill-rule:nonzero;stroke:none;stroke-width:0.0456036"
       id="path198" />
  </g>
</svg>
